<svg xmlns="http://www.w3.org/2000/svg" width="24" height="24" viewBox="0 0 24 24" fill="currentColor"><path d="M12 13.25c-.554 0-1 .446-1 1v5c0 .554.446 1 1 1s1-.446 1-1v-5c0-.554-.446-1-1-1zm-4.547.01a.998.998 0 0 0-.996.492l-2.5 4.328a.998.998 0 0 0 .365 1.367.998.998 0 0 0 1.367-.367l2.5-4.328a1 1 0 0 0-.367-1.367.998.998 0 0 0-.369-.125Zm9.094 0a.998.998 0 0 0-.37.125.998.998 0 0 0-.366 1.367l2.5 4.328a.998.998 0 0 0 1.367.367.998.998 0 0 0 .365-1.367l-2.5-4.328a.998.998 0 0 0-.996-.492Z"/><path d="M4 4.75v1.5c-1.108 0-2 .892-2 2v2c0 1.108.892 2 2 2h16c1.108 0 2-.892 2-2v-2c0-1.108-.892-2-2-2v-1.5z"/></svg>