<svg  xmlns="http://www.w3.org/2000/svg" viewBox="-5 -7 24 24" width="24" height="24" fill="currentColor"><path d="M5-5.75a2 2 0 0 0 1 1.732v3.872A7 9 0 0 0 0 8.75h5a2 2 0 0 0 2 2 2 2 0 0 0 2-2h5A7 9 0 0 0 8-.154v-3.864A2 2 0 0 0 9-5.75H5z"/><path d="M9 11.018a.998.998 0 0 1 1.366.366l1 1.732A.998.998 0 0 1 11 14.482a.998.998 0 0 1-1.366-.366l-1-1.732A.998.998 0 0 1 9 11.018ZM5 11.018c.48.277.643.886.366 1.366l-1 1.732A.998.998 0 0 1 3 14.482a.998.998 0 0 1-.366-1.366l1-1.732A.998.998 0 0 1 5 11.018zM7 11.75c.554 0 1 .446 1 1v2c0 .554-.446 1-1 1s-1-.446-1-1v-2c0-.554.446-1 1-1z"/></svg>