<svg xmlns="http://www.w3.org/2000/svg" viewBox="0 0 24 24" width="24" height="24" fill="currentColor" ><path d="M4 2.75v1.5c-1.108 0-2 .892-2 2h20c0-1.108-.892-2-2-2v-1.5ZM2 7.256v.494h20v-.494Zm0 1.5v1.494c0 1.108.892 2 2 2h16c1.108 0 2-.892 2-2V8.756ZM12 14.25c.554 0 1 .446 1 1v5c0 .554-.446 1-1 1s-1-.446-1-1v-5c0-.554.446-1 1-1zM7.823 14.385c.48.277.643.886.366 1.366l-2.5 4.33a.998.998 0 0 1-1.366.366.998.998 0 0 1-.366-1.366l2.5-4.33a.998.998 0 0 1 1.366-.366zM16.177 14.385a.998.998 0 0 1 1.366.366l2.5 4.33a.998.998 0 0 1-.366 1.366.998.998 0 0 1-1.366-.366l-2.5-4.33a.998.998 0 0 1 .366-1.366z"/></svg>
